Coordinates
version=1
nRows=25
nColumns=33
inDegrees=yes

Units are S.I. units (second, meters, Newtons, ...)
Angles are in degrees.

endheader
time	ground_thorax_rot_x	ground_thorax_rot_y	ground_thorax_rot_z	ground_thorax_tx	ground_thorax_ty	ground_thorax_tz	clav_prot_r	clav_elev_r	scapula_abduction_r	scapula_elevation_r	scapula_upward_rot_r	scapula_winging_r	shoulder_elv_r	plane_of_elev_r	axial_rot_r	elbow_flexion_r	pro_sup_r	wrist_flex_r	wrist_dev_r	clav_prot_l	clav_elev_l	scapula_abduction_l	scapula_elevation_l	scapula_upward_rot_l	scapula_winging_l	shoulder_elv_l	plane_of_elev_l	axial_rot_l	elbow_flexion_l	pro_sup_l	wrist_flex_l	wrist_dev_l	
8.2100	40.310090	9.357835	9.871584	-223.588005	844.317803	3.401848	13.836433	36.528615	38.419329	45.000000	-45.000000	-2245.457741	-1183.135042	142.419715	180.000000	2174.045693	54.280274	22.995331	6.804134	8.288491	-45.000000	-38.899449	45.000000	-45.000000	2256.940330	-3328.875803	134.167380	-180.000000	371.518781	-329.312885	5.792653	-22.311361	
8.2200	40.295095	9.243399	9.670509	-224.605869	844.895155	3.549040	13.792599	36.495044	38.340563	45.000000	-45.000000	-2245.467304	-1183.075591	142.407358	180.000000	2174.058777	54.542961	23.032768	6.736725	8.320212	-45.000000	-38.928499	45.000000	-45.000000	2257.015155	-3328.857343	134.170754	-180.000000	371.514712	-328.917598	5.692374	-22.309338	
8.2300	40.277513	9.130589	9.473784	-225.574890	845.461032	3.710463	13.748987	36.466805	38.267840	45.000000	-45.000000	-2245.472758	-1183.021066	142.403525	180.000000	2174.071424	54.822488	23.071203	6.668995	8.351510	-45.000000	-38.964324	45.000000	-45.000000	2257.084534	-3328.839843	134.177974	-180.000000	371.511112	-328.507187	5.591223	-22.307492	
8.2400	40.257506	9.028067	9.298538	-226.496985	846.016362	3.883506	13.710550	36.436521	38.193309	45.000000	-45.000000	-2245.481031	-1182.971312	142.397482	180.000000	2174.089230	55.117982	23.107026	6.597154	8.384013	-45.000000	-38.989930	45.000000	-45.000000	2257.155201	-3328.827659	134.187701	-180.000000	371.511261	-328.079551	5.486184	-22.304832	
8.2500	40.233124	8.933558	9.140045	-227.373844	846.560515	4.065144	13.670002	36.415478	38.128852	45.000000	-45.000000	-2245.483380	-1182.931659	142.409489	180.000000	2174.106102	55.429812	23.142464	6.524457	8.415927	-45.000000	-39.016961	45.000000	-45.000000	2257.222648	-3328.821799	134.206621	-180.000000	371.516146	-327.631158	5.379457	-22.303151	
8.2600	40.206220	8.847273	9.002600	-228.207727	847.091977	4.252407	13.636480	36.388310	38.058503	45.000000	-45.000000	-2245.494185	-1182.892842	142.410807	180.000000	2174.128951	55.753534	23.173247	6.447771	8.449168	-45.000000	-39.029212	45.000000	-45.000000	2257.293515	-3328.820281	134.224452	-180.000000	371.527453	-327.161160	5.269622	-22.301634	
8.2700	40.174246	8.765347	8.877372	-229.000603	847.608073	4.442419	13.596431	36.375992	38.002825	45.000000	-45.000000	-2245.497692	-1182.864507	142.439427	180.000000	2174.156251	56.083764	23.205850	6.372411	8.479356	-45.000000	-39.046991	45.000000	-45.000000	2257.360132	-3328.824681	134.252769	-180.000000	371.548194	-326.670129	5.159854	-22.303257	
8.2800	40.140678	8.690421	8.763532	-229.755127	848.105937	4.632694	13.564262	36.354124	37.939942	45.000000	-45.000000	-2245.508217	-1182.836979	142.453184	180.000000	2174.179481	56.414038	23.232242	6.298762	8.509686	-45.000000	-39.057148	45.000000	-45.000000	2257.425024	-3328.828968	134.276530	-180.000000	371.570445	-326.158094	5.049906	-22.305182	
8.2900	40.105573	8.615448	8.650868	-230.473449	848.582066	4.820920	13.525596	36.348210	37.887818	45.000000	-45.000000	-2245.510121	-1182.814106	142.488725	180.000000	2174.202022	56.735195	23.261521	6.232367	8.537458	-45.000000	-39.073322	45.000000	-45.000000	2257.481883	-3328.835120	134.302719	-180.000000	371.598635	-325.628074	4.942454	-22.310539	
8.3000	40.073568	8.543797	8.541059	-231.158260	849.033242	5.005185	13.498353	36.326080	37.822830	45.000000	-45.000000	-2245.525736	-1182.787132	142.495806	180.000000	2174.217469	57.038131	23.283403	6.171267	8.564220	-45.000000	-39.083133	45.000000	-45.000000	2257.535493	-3328.839322	134.319137	-180.000000	371.628054	-325.083273	4.836859	-22.317132	
8.3100	40.042853	8.471574	8.434531	-231.812078	849.456145	5.183800	13.463373	36.323599	37.769587	45.000000	-45.000000	-2245.528973	-1182.763194	142.528422	180.000000	2174.238184	57.314158	23.310002	6.118549	8.589799	-45.000000	-39.093378	45.000000	-45.000000	2257.583866	-3328.848043	134.337576	-180.000000	371.665057	-324.527661	4.734669	-22.327900	
8.3200	40.013586	8.405695	8.337674	-232.437948	849.847844	5.355420	13.439654	36.304037	37.708154	45.000000	-45.000000	-2245.538923	-1182.741459	142.537671	180.000000	2174.245439	57.562537	23.327862	6.072275	8.615680	-45.000000	-39.099490	45.000000	-45.000000	2257.629434	-3328.858143	134.353454	-180.000000	371.698294	-323.958152	4.634578	-22.338871	
8.3300	39.983561	8.336715	8.247790	-233.038782	850.205363	5.518825	13.409910	36.300086	37.653435	45.000000	-45.000000	-2245.538723	-1182.721616	142.560369	180.000000	2174.257938	57.781121	23.349131	6.031650	8.640779	-45.000000	-39.102069	45.000000	-45.000000	2257.672585	-3328.873067	134.372524	-180.000000	371.736206	-323.377221	4.536947	-22.353303	
8.3400	39.952598	8.269055	8.165009	-233.618055	850.526233	5.673009	13.389022	36.278466	37.592595	45.000000	-45.000000	-2245.547623	-1182.707081	142.560808	180.000000	2174.262658	57.974574	23.362588	5.992471	8.661853	-45.000000	-39.107485	45.000000	-45.000000	2257.712799	-3328.890657	134.395122	-180.000000	371.773602	-322.786204	4.441857	-22.369738	
8.3500	39.922294	8.193782	8.083123	-234.179422	850.808436	5.817047	13.360528	36.273545	37.536726	45.000000	-45.000000	-2245.546921	-1182.692416	142.574300	180.000000	2174.281233	58.146696	23.381085	5.952311	8.680028	-45.000000	-39.110611	45.000000	-45.000000	2257.750606	-3328.911390	134.419990	-180.000000	371.818138	-322.192727	4.350562	-22.391317	
8.3600	39.891693	8.122248	8.010508	-234.726641	851.050629	5.950110	13.339180	36.252065	37.477023	45.000000	-45.000000	-2245.550694	-1182.689125	142.576702	180.000000	2174.292335	58.310017	23.392292	5.908494	8.693921	-45.000000	-39.118357	45.000000	-45.000000	2257.783703	-3328.938981	134.450978	-180.000000	371.861344	-321.596463	4.262771	-22.414970	
8.3700	39.862631	8.043911	7.937289	-235.262987	851.252160	6.071441	13.313827	36.242292	37.415284	45.000000	-45.000000	-2245.544118	-1182.686148	142.582545	180.000000	2174.304353	58.473757	23.405377	5.860920	8.706666	-45.000000	-39.120271	45.000000	-45.000000	2257.810998	-3328.970487	134.478065	-180.000000	371.904604	-321.001122	4.179388	-22.442033	
8.3800	39.834664	7.962219	7.863252	-235.791210	851.413290	6.180525	13.292392	36.219576	37.352157	45.000000	-45.000000	-2245.533648	-1182.692840	142.583515	180.000000	2174.305073	58.647756	23.413134	5.808084	8.714930	-45.000000	-39.131334	45.000000	-45.000000	2257.828240	-3329.010484	134.507489	-180.000000	371.944778	-320.407949	4.101442	-22.472313	
8.3900	39.807798	7.877185	7.791509	-236.313086	851.535142	6.277134	13.266123	36.213775	37.289412	45.000000	-45.000000	-2245.505581	-1182.701878	142.598296	180.000000	2174.302219	58.838088	23.422160	5.751024	8.724951	-45.000000	-39.135110	45.000000	-45.000000	2257.838442	-3329.052854	134.531530	-180.000000	371.979074	-319.817862	4.027506	-22.503682	
8.4000	39.782204	7.794748	7.726021	-236.829509	851.619733	6.361429	13.243646	36.196579	37.226202	45.000000	-45.000000	-2245.473364	-1182.723243	142.614189	180.000000	2174.287529	59.049036	23.425384	5.689510	8.733910	-45.000000	-39.142632	45.000000	-45.000000	2257.841341	-3329.103156	134.558601	-180.000000	372.011228	-319.227508	3.956463	-22.536514	
8.4100	39.757133	7.719258	7.676561	-237.340291	851.669727	6.433821	13.218458	36.195213	37.161833	45.000000	-45.000000	-2245.430851	-1182.748920	142.643755	180.000000	2174.271663	59.278362	23.426581	5.624322	8.745721	-45.000000	-39.135479	45.000000	-45.000000	2257.843095	-3329.156558	134.583243	-180.000000	372.040520	-318.636164	3.885311	-22.567937	
8.4200	39.737549	7.641484	7.626803	-237.844572	851.688368	6.494890	13.197706	36.179356	37.093919	45.000000	-45.000000	-2245.396358	-1182.777567	142.662841	180.000000	2174.256927	59.519685	23.423944	5.556914	8.756140	-45.000000	-39.129933	45.000000	-45.000000	2257.842630	-3329.216118	134.608309	-180.000000	372.078721	-318.046694	3.815662	-22.602578	
8.4300	39.717875	7.572943	7.597386	-238.341103	851.679158	6.545185	13.171625	36.186011	37.029264	45.000000	-45.000000	-2245.350216	-1182.807674	142.706207	180.000000	2174.251956	59.763604	23.421150	5.488885	8.768992	-45.000000	-39.107912	45.000000	-45.000000	2257.846227	-3329.276816	134.634334	-180.000000	372.115501	-317.461825	3.744563	-22.633819	
8.4400	39.700055	7.502494	7.571751	-238.829003	851.645630	6.585176	13.151433	36.173612	36.963885	45.000000	-45.000000	-2245.316222	-1182.844217	142.734214	180.000000	2174.248050	60.002631	23.414231	5.423186	8.780479	-45.000000	-39.090587	45.000000	-45.000000	2257.851669	-3329.341577	134.665970	-180.000000	372.157917	-316.881218	3.674282	-22.665562	
8.4500	39.681230	7.433667	7.557144	-239.307479	851.591092	6.615189	13.127749	36.177766	36.899810	45.000000	-45.000000	-2245.270293	-1182.879130	142.775113	180.000000	2174.246364	60.227690	23.407360	5.362102	8.792037	-45.000000	-39.067540	45.000000	-45.000000	2257.858151	-3329.404061	134.699049	-180.000000	372.196042	-316.308042	3.603851	-22.693550	
